# Blender v3.4.1 OBJ File: 'hollow-cube.blend'
# www.blender.org
mtllib hollow-cube.mtl
o Cube
v 0.810000 0.810000 -0.810000
v 1.000000 1.000000 -1.000000
v 1.000000 -1.000000 -1.000000
v 0.810000 -0.810000 -0.810000
v 0.810000 0.810000 0.810000
v 1.000000 1.000000 1.000000
v 0.810000 -0.810000 0.810000
v 1.000000 -1.000000 1.000000
v -1.000000 1.000000 -1.000000
v -0.810000 0.810000 -0.810000
v -0.810000 -0.810000 -0.810000
v -1.000000 -1.000000 -1.000000
v -0.810000 0.810000 0.810000
v -1.000000 1.000000 1.000000
v -1.000000 -1.000000 1.000000
v -0.810000 -0.810000 0.810000
v -0.810000 1.000000 0.810000
v 0.810000 1.000000 -0.810000
v -0.810000 1.000000 -0.810000
v 0.810000 1.000000 0.810000
v -0.810000 0.810000 1.000000
v 0.810000 0.810000 1.000000
v 0.810000 -0.810000 1.000000
v -0.810000 -0.810000 1.000000
v -1.000000 -0.810000 0.810000
v -1.000000 0.810000 -0.810000
v -1.000000 0.810000 0.810000
v -1.000000 -0.810000 -0.810000
v 0.810000 -1.000000 0.810000
v -0.810000 -1.000000 -0.810000
v 0.810000 -1.000000 -0.810000
v -0.810000 -1.000000 0.810000
v 1.000000 0.810000 0.810000
v 1.000000 0.810000 -0.810000
v 1.000000 -0.810000 -0.810000
v 1.000000 -0.810000 0.810000
v -0.810000 -0.810000 -1.000000
v 0.810000 0.810000 -1.000000
v -0.810000 0.810000 -1.000000
v 0.810000 -0.810000 -1.000000
vt 0.875000 0.500000
vt 0.875000 0.750000
vt 0.625000 0.750000
vt 0.648750 0.726250
vt 0.851250 0.726250
vt 0.851250 0.523750
vt 0.625000 0.500000
vt 0.648750 0.523750
vt 0.375000 0.750000
vt 0.625000 1.000000
vt 0.375000 1.000000
vt 0.398750 0.976250
vt 0.601250 0.976250
vt 0.601250 0.773750
vt 0.398750 0.773750
vt 0.601250 0.023750
vt 0.625000 0.000000
vt 0.625000 0.250000
vt 0.375000 0.250000
vt 0.398750 0.226250
vt 0.601250 0.226250
vt 0.375000 0.000000
vt 0.398750 0.023750
vt 0.148750 0.726250
vt 0.125000 0.750000
vt 0.125000 0.500000
vt 0.375000 0.500000
vt 0.351250 0.726250
vt 0.351250 0.523750
vt 0.148750 0.523750
vt 0.398750 0.726250
vt 0.601250 0.726250
vt 0.601250 0.523750
vt 0.398750 0.523750
vt 0.601250 0.273750
vt 0.398750 0.476250
vt 0.601250 0.476250
vt 0.398750 0.273750
vt 0.625000 0.250000
vt 0.625000 0.250000
vt 0.625000 0.500000
vt 0.625000 0.500000
vt 0.375000 0.000000
vt 0.625000 0.000000
vt 0.625000 0.000000
vt 0.375000 0.000000
vt 0.375000 0.250000
vt 0.625000 0.250000
vt 0.375000 0.250000
vt 0.375000 0.500000
vt 0.375000 0.500000
vt 0.375000 0.250000
vt 0.375000 0.750000
vt 0.375000 0.750000
vt 0.625000 0.750000
vt 0.625000 0.750000
vt 0.625000 0.250000
vt 0.375000 0.250000
vt 0.375000 0.750000
vt 0.125000 0.750000
vt 0.125000 0.750000
vt 0.875000 0.750000
vt 0.875000 0.750000
vt 0.625000 0.750000
vt 0.375000 0.000000
vt 0.625000 0.000000
vt 0.125000 0.500000
vt 0.125000 0.500000
vt 0.125000 0.750000
vt 0.875000 0.500000
vt 0.875000 0.750000
vt 0.875000 0.500000
vt 0.875000 0.750000
vt 0.625000 0.750000
vt 0.875000 0.500000
vt 0.125000 0.750000
vt 0.375000 0.750000
vt 0.125000 0.500000
vt 0.375000 0.500000
vt 0.625000 0.500000
vt 0.625000 0.500000
vt 0.375000 0.500000
vn 0.0000 1.0000 0.0000
vn 0.0000 0.0000 1.0000
vn -1.0000 0.0000 0.0000
vn 0.0000 -1.0000 0.0000
vn 1.0000 0.0000 0.0000
vn 0.0000 0.0000 -1.0000
usemtl Material
s off
f 9/1/1 14/2/1 6/3/1 20/4/1 17/5/1 19/6/1
f 6/3/1 2/7/1 9/1/1 19/6/1 18/8/1 20/4/1
f 8/9/2 6/3/2 14/10/2 15/11/2 24/12/2 21/13/2 22/14/2 23/15/2
f 24/12/2 15/11/2 8/9/2 23/15/2
f 27/16/3 14/17/3 9/18/3 12/19/3 28/20/3 26/21/3
f 28/20/3 12/19/3 15/22/3 14/17/3 27/16/3 25/23/3
f 32/24/4 15/25/4 12/26/4 3/27/4 8/9/4 29/28/4 31/29/4 30/30/4
f 8/9/4 15/25/4 32/24/4 29/28/4
f 3/27/5 2/7/5 6/3/5 8/9/5 36/31/5 33/32/5 34/33/5 35/34/5
f 36/31/5 8/9/5 3/27/5 35/34/5
f 39/35/6 9/18/6 2/7/6 3/27/6 40/36/6 38/37/6
f 40/36/6 3/27/6 12/19/6 9/18/6 39/35/6 37/38/6
f 19/39/2 10/40/2 1/41/2 18/42/2
f 16/43/5 13/44/5 21/45/5 24/46/5
f 11/47/2 10/40/2 26/48/2 28/49/2
f 31/50/2 4/51/2 11/47/2 30/52/2
f 36/53/6 7/54/6 5/55/6 33/56/6
f 39/57/5 10/40/5 11/47/5 37/58/5
f 23/59/1 7/54/1 16/60/1 24/61/1
f 21/62/4 13/63/4 5/55/4 22/64/4
f 5/55/3 7/54/3 23/59/3 22/64/3
f 13/44/6 16/43/6 25/65/6 27/66/6
f 16/60/1 11/67/1 28/68/1 25/69/1
f 10/70/4 13/63/4 27/71/4 26/72/4
f 5/55/6 13/63/6 17/73/6 20/74/6
f 17/73/5 13/63/5 10/70/5 19/75/5
f 1/41/3 5/55/3 20/74/3 18/42/3
f 32/76/6 16/60/6 7/54/6 29/77/6
f 30/78/5 11/67/5 16/60/5 32/76/5
f 29/77/3 7/54/3 4/51/3 31/50/3
f 37/58/1 11/47/1 4/51/1 40/79/1
f 1/41/4 10/40/4 39/57/4 38/80/4
f 40/79/3 4/51/3 1/41/3 38/80/3
f 34/81/2 1/41/2 4/51/2 35/82/2
f 35/82/1 4/51/1 7/54/1 36/53/1
f 33/56/4 5/55/4 1/41/4 34/81/4
